<svg xmlns="http://www.w3.org/2000/svg" xmlns:xlink="http://www.w3.org/1999/xlink" xmlns:lucid="lucid" width="1060" height="760"><g transform="translate(-220 -140)" lucid:page-tab-id="0_0"><path d="M680 380c0 121.5-98.5 220-220 220s-220-98.5-220-220 98.5-220 220-220 220 98.5 220 220z" stroke="#000" fill="#ffc374"/><path d="M388 320c17.67 0 32 17.9 32 40s-14.33 40-32 40h-96c-17.67 0-32-17.9-32-40s14.33-40 32-40z" stroke="#000" fill="#ffdf71"/><use xlink:href="#a" transform="matrix(1,0,0,1,265,325) translate(22.109375 43.60677083333333)"/><path d="M500 520c0 22.1-26.86 40-60 40s-60-17.9-60-40 26.86-40 60-40 60 17.9 60 40z" stroke="#000" fill="#ff8f80"/><use xlink:href="#b" transform="matrix(1,0,0,1,385,485) translate(27.049479166666664 43.60677083333333)"/><path d="M628 320c17.67 0 32 17.9 32 40s-14.33 40-32 40h-96c-17.67 0-32-17.9-32-40s14.33-40 32-40z" stroke="#000" fill="#ffdf71"/><use xlink:href="#c" transform="matrix(1,0,0,1,505.00000000000006,325) translate(36.46484375 43.60677083333333)"/><path d="M378.05 519.48h.47v1h-.5l-1.53-.06.03-1zm-7.9-.65l2.4.3-.12 1-2.42-.3-1.57-.27.16-1zm-8.96-2.08l2.1.63 1.4.36-.25.97-1.4-.35-2.17-.65-.33-.12.33-.94zm-6-2.37l1.95.86-.4.92-1.96-.87-1.72-.86.44-.9zm-7.36-4.26l1.8 1.2.42.25-.5.86-.46-.27-1.83-1.22-1.1-.8.6-.8zm-7.03-5.83l1.75 1.62 1.1.95-.66.76-1.12-.96-1.77-1.67-.1-.1.7-.7zm-5.2-5.8l1.74 2.1.62.68-.74.67-.64-.7-1.76-2.14-.2-.27.78-.6zm-3.48-4.82l.9 1.32-.8.57-.94-1.34-1.3-2.04.85-.54zm-3.52-5.82l.2.35-.87.5-.2-.35-1.68-3.22.88-.46zm-3.54-7.14l.16.33-.9.43-.17-.36-1.4-3.37.9-.38zm-3.52-8.95l.7 1.86-.95.35-.7-1.88-.17-.5h1.05zm-6-23.3h-1l-.35-1.8.97-.18zm-1-5.94l-1 .15-.57-3.98 1-.15zm-1.1-7.95l-.98.1-.42-4 1-.1zm-.9-8.62l.07.62-.98.1-.07-.64-.2-3.4 1-.06zm-.45-7.4l-1 .07-.26-4.02 1-.05zm-.37-8h-1l-.08-4 1-.03zm-.16-8.06l-1 .02-.05-2 1-.03z"/><path d="M311.52 400.5h-1v-.5h1zM379.5 520l-19.06 8.43-.4-.9 17.5-7.76-15.22-11.62.6-.8z"/><use xlink:href="#d" transform="matrix(1,0,0,1,284.8569694925894,448.4735697904512) translate(0 18.739149305555554)"/><path d="M520 774c0-7.73 6.27-14 14-14h172c7.73 0 14 6.27 14 14v92c0 7.73-6.27 14-14 14H534c-7.73 0-14-6.27-14-14z" stroke="#000" fill="#99d2f2"/><use xlink:href="#e" transform="matrix(1,0,0,1,525,765) translate(17.79296875 63.60677083333333)"/><use xlink:href="#f" transform="matrix(1,0,0,1,525,765) translate(157.23307291666666 63.60677083333333)"/><path d="M340 180h240v60H340z" stroke="#000" stroke-opacity="0" stroke-width="2" fill="#fff" fill-opacity="0"/><use xlink:href="#g" transform="matrix(1,0,0,1,345,185) translate(48.623046875 35.041232638888886)"/><path d="M517.12 819.48h1.4v1h-1.43l-.6-.03.04-1zm-4.55-.2l-.1 1-3.97-.33.08-1zm-11.3-1.4l3.4.57-.18 1-3.4-.6-.56-.1.2-1zm-6.33-1.48l1.92.5-.24.96-1.94-.5-1.93-.58.28-.96zm-8.22-2.86l2.57 1.02-.38.93-2.6-1.03-1.12-.5.4-.92zm-7.14-3.53l2.28 1.26.16.08-.45.9-.17-.1-2.32-1.27-1.02-.62.5-.85zm-6.4-4.24l2.07 1.5-.6.8-2.07-1.5-1.13-.9.62-.8zm-5.9-5.1l1.77 1.66-.7.73-1.77-1.68-1.1-1.12.72-.7zm-5.58-6.2l1.8 2.18-.76.64-1.82-2.2-.7-.93.8-.6zm-3.6-4.98l.58.85-.82.57-.6-.87-1.6-2.5.86-.54zm-5.3-9.22l1.73 3.3-.9.48-1.73-3.34-.1-.23.9-.43zm-1.8-3.82l-.9.4-1.56-3.7.92-.38zm-3.4-8.63l.46 1.24-.93.34-.47-1.24-.83-2.56.95-.3zm-2-6.33l-.96.27-1.07-3.85.96-.28zm-2.02-7.7l-.97.22-.9-3.9.97-.23zm-1.66-7.8l-.98.18-.75-3.93.97-.18zm-1.34-7.86l-1 .15-.58-3.95 1-.15zm-1.1-7.9l-1 .1-.4-3.96 1-.1zm-2.18-31.84l-1 .02-.08-4 1-.02zm-.16-8l-1 .02-.08-4h1zm-.08-11.96l-.1 2.93.03 1.04-1 .02-.03-1.08.1-2.95zm.25-8l-.12 4-1-.03.13-4zm.25-7.98l-.12 4-1-.04.12-4zm.25-8l-.12 4-1-.03.12-4zm.25-8l-.12 4-1-.02.12-4zm.25-7.98l-.13 4-1-.03.13-4zm.25-8l-.13 4-1-.02.13-4zm.24-7.98l-.13 4-1-.04.12-4zm.24-8l-.12 4-1-.03.12-4zm.24-8l-.06 2.28-.05 1.73-1-.03.05-1.72.06-2.27zm.2-7.98l-.1 4-1-.03.1-4zm.22-8l-.1 4-1-.02.1-4zm.22-7.98l-.1 4-1-.03.1-4zm.2-8l-.1 4-1-.03.1-4zm.22-8l-.1 4-1-.02.1-4zm.16-5.98l-.05 2-1-.03.05-2zM440 560l.5-.02v.54l-1-.03v-.52z"/><path d="M519.5 820l-18.65 9.3-.45-.88 17.14-8.56-15.75-10.9.55-.82z"/><use xlink:href="#h" transform="matrix(1,0,0,1,394.4236979218691,701.2654504911417) translate(0 18.739149305555554)"/><path d="M620.53 758l-.03 1.5-1-.02.03-1.5zm.1-4.96l-.06 2.98-1-.02.07-2.98zm.12-4.97l-.07 2.98-1-.02.07-3zm.1-4.98l-.06 2.98-1-.03.05-2.98zm.1-4.98l-.05 2.98-1-.02.06-3zm.12-4.98l-.07 3-1-.04.07-2.98zm.1-4.97l-.06 2.98-1-.02.08-2.98zm.1-4.98l-.05 2.98-1-.02.06-3zm.12-4.98l-.07 2.98-1-.02.06-2.98zm.1-4.98l-.07 3-1-.03.07-2.98zm.1-4.97l-.06 2.98-1-.02.06-2.98zm.54-24.87l-.02.95h-1l.02-.97zm.1-4.98l-.06 3-1-.03.07-3zm.12-4.97l-.07 2.98-1-.02.06-2.97zm.1-4.98l-.06 3-1-.03.06-3zm.2-4.96l-.12 3-1-.05.12-2.98zm.2-4.96l-.12 2.98-1-.04.13-2.98zm.2-4.97l-.1 2.98-1-.04.1-2.97zm.2-4.97l-.1 2.98-1-.04.1-2.98zm.22-4.97l-.13 2.98-1-.03.13-3zm.2-4.98l-.12 3-1-.05.12-3zm.2-4.97l-.12 2.98-1-.04.12-2.98zm.2-4.97l-.12 3-1-.05.12-2.98zm.2-4.96l-.12 2.98-1-.04.13-2.98zm.2-4.97l-.1 2.98-1-.04.1-2.97zm.2-4.97l-.1 2.98-1-.04.1-2.98zm.2-4.98l-.1 3-1-.05.12-3zm.22-4.97l-.12 3-1-.06.12-3zm.2-4.97l-.12 2.98-1-.04.12-2.98zm.2-4.97l-.12 3-1-.05.12-2.98zm.2-4.96l-.12 2.98-1-.04.13-2.98zm.2-4.97l-.1 2.98-1-.04.1-2.97zm.2-4.97l-.1 2.98-1-.04.1-3zm.2-4.98l-.1 3-1-.05.12-3zm.22-4.97l-.12 3-1-.06.12-3zm.2-4.97l-.12 2.98-1-.04.12-2.98zm.2-4.97l-.12 3-1-.05.12-2.98zm.2-4.96l-.12 2.98-1-.04.13-2.98zm.2-4.97l-.1 2.98-1-.04.1-2.97zm.2-4.98l-.1 2.98-1-.04.1-3zm.2-4.98l-.1 3-1-.05.12-3zm.22-4.97l-.12 2.98-1-.04.12-3zm.2-4.97l-.12 2.98-1-.04.12-2.98zm.2-4.97l-.12 3-1-.05.12-2.98zm.2-4.96l-.12 2.98-1-.04.13-2.98zm.2-4.97l-.1 2.98-1-.04.1-2.98zm.2-4.98l-.1 2.98-1-.04.1-3zm.2-4.98l-.1 3-1-.06.1-2.98zm.22-4.97l-.12 2.98-1-.04.12-3zm.2-4.97l-.12 2.98-1-.04.12-2.98zm.2-4.97l-.12 3-1-.05.12-2.98zm.2-4.96l-.12 2.98-1-.04.13-2.98zm.2-4.98l-.1 3-1-.05.1-2.98zm.2-4.97l-.1 2.98-1-.04.1-3zm.2-4.98l-.1 2.98-1-.04.1-2.98zm.16-3.57l-.07 1.58-1-.04.07-1.56-.03-1.4 1-.02zm-.07-3.42l-1 .02-.06-3h1zm-.1-4.98l-1 .02-.06-2.98 1-.03zm-.1-4.97l-1 .02-.06-2.98 1-.03zm-.1-4.98l-1 .03-.07-3h1zm-.1-4.97l-1 .02-.07-2.98 1-.02zm-.1-4.97l-1 .02-.07-3h1zm-.1-4.98l-1 .02-.07-2.98 1-.02zm-.1-4.97l-1 .03-.07-3h1zm-.1-4.97l-1 .02-.07-2.98 1-.02zm-.1-4.97l-1 .02-.07-3h1zm-.12-4.98l-1 .02-.06-2.98 1-.02zm-.1-4.97l-1 .03-.06-3h1zm-.1-4.97l-1 .02-.03-1.5h1z"/><path d="M620.5 759.5v.5h-1v-.52zM639.86 418.2l-.85.52-10.08-16.3-9.4 16.7-.88-.5 10.24-18.15z"/><use xlink:href="#i" transform="matrix(1,0,0,1,581.2559559413226,684.3477210098046) translate(0 18.739149305555554)"/><path d="M406.86 323.85l-.58.65-.4.48-.77-.64.42-.5.6-.66zm3.43-3.68l-1.46 1.5-.63.68-.73-.67.64-.7 1.48-1.5zm170.2-.68h-1l-.03-1.5 1-.03zm-166.6-2.83l-2.2 2.06-.68-.73 2.2-2.06zM580.1 313l.22 2.02.05.9-1 .07-.05-.9-.2-2-.02-.08 1-.15zm-162.42.33l-2.3 1.98-.65-.74 2.3-1.98zm3.9-3.16l-2.37 1.88-.6-.78 2.37-1.9zm157.9-.93l.3 1.6-.98.2-.3-1.6-.33-1.35.98-.24zm-153.85-2.08l-2.46 1.8-.58-.82 2.44-1.78zm152.46-2.88l.5 1.6-.94.3-.5-1.57-.5-1.27.95-.35zm-148.32.03l-2.53 1.7-.55-.84 2.52-1.68zm4.24-2.7l-1.83 1.1-.74.5-.55-.84.76-.5 1.84-1.1zm141.52-3.07l.7 1.37.57 1.18-.9.43-.54-1.16-.7-1.32-.1-.18.87-.5zm-137.2.5l-.62.34-1.97 1.2-.52-.87 2-1.2.63-.35zm4.43-2.44l-2.66 1.45-.47-.88 2.66-1.46zm130.32-1.92l.86 1.25.42.65-.85.54-.4-.64-.84-1.2-.47-.6.8-.62zm-125.84-.37l-2.72 1.36-.44-.9 2.7-1.35zm4.54-2.16l-1.56.7-1.17.57-.44-.88 1.18-.6 1.6-.7zm118.33-1.04l1.05 1.17.17.2-.77.63-.15-.18-1.03-1.13-.86-.9.72-.7zm-113.7-1.02l-2.78 1.23-.4-.9 2.76-1.23zm110.12-2.34l1.2 1.05-.64.75-1.2-1.04-1.1-.87.6-.8zm-108.28 1.57l-.13-.3h.9zm103.88-4.74l1.6 1.06-.56.83-1.58-1.05-.96-.58.52-.85zm-3.5-2.02l.76.4-.48.9-.74-.42-1.93-.96.44-.9zm-6.4-2.84l2.3.92.27.1-.4.93-.25-.1-2.28-.9-.27-.1.33-.95zm-2.52-.87l.32.1-.33.95-.3-.1-2.58-.78.3-.96zm-5.74-1.6l1.15.3-.24.97-1.14-.3-1.8-.38.22-.97zm-3.83-.8l-.16 1-2.03-.34v-1.03z"/><path d="M580.58 320h-1l-.07-.43 1-.15zM410.78 305.4l-4.55 18.6 18.5-4.97.25.97-20.13 5.4 4.96-20.24z"/><use xlink:href="#i" transform="matrix(1,0,0,1,457.7387386728173,265.86789839559003) translate(0 18.739149305555554)"/><path d="M1260 380c0 121.5-98.5 220-220 220s-220-98.5-220-220 98.5-220 220-220 220 98.5 220 220z" stroke="#000" fill="#ffc374"/><path d="M988 320c17.67 0 32 17.9 32 40s-14.33 40-32 40h-96c-17.67 0-32-17.9-32-40s14.33-40 32-40z" stroke="#000" fill="#ffdf71"/><use xlink:href="#c" transform="matrix(1,0,0,1,865,325) translate(36.46484375 43.60677083333333)"/><path d="M1140 520c0 22.1-26.86 40-60 40s-60-17.9-60-40 26.86-40 60-40 60 17.9 60 40z" stroke="#000" fill="#ff8f80"/><use xlink:href="#b" transform="matrix(1,0,0,1,1025,485) translate(27.049479166666664 43.60677083333333)"/><path d="M1188 320c17.67 0 32 17.9 32 40s-14.33 40-32 40h-96c-17.67 0-32-17.9-32-40s14.33-40 32-40z" stroke="#000" fill="#ffdf71"/><use xlink:href="#a" transform="matrix(1,0,0,1,1065,325) translate(22.109375 43.60677083333333)"/><path d="M820 774c0-7.73 6.27-14 14-14h172c7.73 0 14 6.27 14 14v92c0 7.73-6.27 14-14 14H834c-7.73 0-14-6.27-14-14z" stroke="#000" fill="#99d2f2"/><use xlink:href="#e" transform="matrix(1,0,0,1,825,765) translate(17.98828125 63.60677083333333)"/><use xlink:href="#j" transform="matrix(1,0,0,1,825,765) translate(157.42838541666666 63.60677083333333)"/><path d="M920 200h240v84.67H920z" stroke="#000" stroke-opacity="0" stroke-width="2" fill="#fff" fill-opacity="0"/><use xlink:href="#k" transform="matrix(1,0,0,1,925,205) translate(25.950520833333314 31.347656249999996)"/><use xlink:href="#l" transform="matrix(1,0,0,1,925,205) translate(115 63.734809027777786)"/><path d="M920 759.5l-.34-16.02-1-16.15-1.76-16.64-2.62-17.7-3.8-19.8-5.9-25-28.25-104.55-3.02-15.77-1.98-13.4-1.27-12.08-.7-11.28-.24-10.78.23-10.5.65-10.36 1.1-10.38 1.55-10.5 2.05-10.75 2.6-11.12 3.25-11.6 1.7-5.46" fill="none"/><path d="M920 759.5l-.03-1.5m-.04-2.02l-.07-3.02m-.04-2l-.06-3.02m-.04-2l-.06-2.46-.03-.56m-.13-2l-.2-3.02m-.1-2l-.2-3.02m-.13-2l-.2-3m-.18-2l-.32-3m-.2-2l-.33-3m-.2-2l-.33-3m-.2-2l-.02-.2-.42-2.8m-.3-1.98l-.44-2.98m-.3-2l-.43-2.97m-.3-2l-.42-2.94V693m-.4-1.98l-.55-2.96m-.38-1.97l-.57-2.96m-.37-1.97l-.56-2.96m-.38-1.98l-.57-2.97m-.47-1.95l-.7-2.94m-.45-1.95l-.7-2.95m-.45-1.96l-.7-2.94m-.46-1.96l-.7-2.93m-.45-1.96l-.7-2.92m-.5-1.95l-.78-2.9m-.53-1.95l-.78-2.9m-.52-1.95l-.8-2.9m-.5-1.95l-.8-2.9m-.52-1.95l-.8-2.92m-.52-1.93l-.78-2.9m-.53-1.95l-.78-2.9m-.53-1.95l-.78-2.9m-.53-1.95l-.8-2.9m-.5-1.95l-.8-2.9m-.52-1.95l-.78-2.9m-.52-1.95l-.8-2.9m-.52-1.96l-.78-2.9m-.53-1.94l-.78-2.9m-.54-1.95l-.8-2.9m-.5-1.94l-.8-2.9m-.52-1.95l-.8-2.9m-.5-1.94l-.8-2.9m-.52-1.95l-.8-2.9m-.52-1.95l-.78-2.9m-.53-1.95l-.8-2.9m-.52-1.95l-.35-1.3-.3-1.64m-.4-1.96l-.56-2.96m-.38-1.98l-.57-2.96m-.38-1.97l-.44-2.3-.1-.67m-.3-2l-.43-2.97m-.3-2l-.43-2.97m-.3-2l-.12-.78-.23-2.2m-.22-2l-.32-3m-.2-2l-.3-2.88-.02-.12m-.12-2l-.2-3.02m-.12-2l-.2-3m-.08-2.02l-.06-3m-.05-2.02l-.05-3.02m-.04-2l.08-3.02m.04-2l.06-3.03m.04-2v-.3l.18-2.72m.13-2l.2-3m.1-2.02l.05-.62.25-2.37m.2-2l.33-3m.2-2l.1-1 .3-1.97m.3-2l.44-2.98m.3-1.98l.23-1.57.26-1.4m.37-1.98l.57-2.96m.37-1.98l.48-2.43.12-.53m.46-1.95l.7-2.94m.45-1.96l.7-2.93m.5-1.95l.82-2.9m.54-1.95l.8-2.9m.55-1.94l.23-.76.66-2.1m.6-1.93l.44-1.43" stroke="#000" fill="none"/><path d="M920.5 760h-1v-.5h1zM887.64 418.95l-.97.24-4.7-18.58-14 13.06-.7-.73 15.27-14.2zM920.53 758l-.03 1.5h-1l.03-1.52zm.1-5.02l-.06 3h-1l.06-3.02zm.1-5l-.06 3-1-.02.07-3zm.1-5.03l-.05 3h-1l.06-3.02zm.1-5l-.05 3-1-.03.06-3zm.1-5.03l-.05 3h-1l.06-3.02zm.26-5l-.2 3-1-.05.2-3zm.3-5l-.18 3-1-.06.2-3zm.32-5l-.2 3-1-.06.2-3zm.3-5l-.18 3-1-.07.2-3zm.33-5.02l-.2 3-1-.06.2-3zm.5-4.97l-.33 3-1-.1.32-3zm.5-5l-.3 3-1-.1.32-3zm.22-2l-1-.1.16-1.5h1zm3.67-27.82l-.44 3-1-.16.45-2.97zm.85-4.9l-.58 2.95-.98-.2.56-2.95zm.93-4.94l-.57 2.96-.98-.2.56-2.95zm.94-4.93l-.57 2.96-.98-.2.56-2.95zm.93-4.93l-.56 2.96-.98-.2.56-2.94zm1.13-4.86l-.7 2.93-.96-.23.68-2.93zm1.14-4.9l-.68 2.94-1-.23.7-2.93zm1.15-4.87l-.7 2.93-.96-.23.68-2.93zm1.22-4.85l-.55 1.97-.22.9-.98-.22.22-.94.56-2zm1.35-4.83l-.82 2.9-.96-.28.8-2.9zm1.34-4.84l-.8 2.9-.97-.27.8-2.9zm1.33-4.77l-.8 2.83-.96-.27.8-2.84zm1.56-4.83l-.93 2.87-.95-.3.93-2.87zm1.56-4.77l-.95 2.87-.95-.3.93-2.88zm1.54-4.77l-.93 2.86-.95-.3.93-2.88zm1.67-4.7l-1.04 2.82-.94-.35 1.05-2.82zm1.76-4.7l-1.05 2.8-.93-.33 1.05-2.83zm1.75-4.7l-1.04 2.8-.94-.34 1.05-2.83zm1.8-4.67l-.55 1.33-.54 1.44-.93-.35.55-1.48.57-1.35zm1.95-4.63l-1.16 2.78-.94-.38 1.17-2.77zm1.95-4.62l-1.17 2.78-.92-.38 1.18-2.78zm1.94-4.62l-1.16 2.78-.93-.4 1.17-2.76zm2.1-4.53l-1.28 2.72-.9-.42 1.27-2.73zm2.14-4.54l-1.3 2.73-.9-.42 1.3-2.72zm2.13-4.53l-1.27 2.72-.9-.43 1.28-2.72zm2.18-4.5l-.45.85-.86 1.84-.9-.43.87-1.86.45-.86zm2.32-4.45l-1.4 2.67-.88-.47 1.4-2.67zm2.33-4.44l-1.4 2.66-.88-.46 1.4-2.67zm2.32-4.45l-1.4 2.67-.88-.46 1.4-2.67zm2.37-4.4l-.68 1.17-.76 1.45-.88-.46.77-1.48.68-1.2zm2.5-4.34l-1.5 2.6-.86-.5 1.5-2.6zm2.52-4.36l-1.5 2.6-.87-.5 1.5-2.6zm2.5-4.34l-1.5 2.6-.86-.5 1.5-2.6zm2.52-4.34l-1.5 2.6-.87-.5 1.5-2.6zm2.66-4.23l-1.6 2.54-.85-.54 1.6-2.54zm2.7-4.24l-1.62 2.53-.84-.53 1.6-2.54zm2.7-4.24l-1.63 2.54-.85-.54 1.6-2.54zm2.68-4.23l-1.62 2.54-.84-.54 1.6-2.54zm2.7-4.24l-1.63 2.53-.84-.54 1.62-2.55zm2.8-4.13l-1.7 2.47-.83-.58 1.72-2.47zm2.87-4.12l-1.72 2.47-.82-.57 1.72-2.47zm2.87-4.12l-1.72 2.47-.82-.57 1.72-2.47zm2.87-4.12l-1.7 2.48-.83-.57 1.72-2.46zm2.88-4.1l-1.72 2.47-.82-.57 1.72-2.47zm2.86-4.12l-1.72 2.47-.82-.57 1.72-2.47zm2.92-4.05l-1.1 1.43-.67.97-.83-.57.7-1 1.1-1.44zm3.04-4l-1.82 2.4-.8-.6 1.83-2.4zm3.04-4l-1.82 2.4-.8-.6 1.83-2.4zm3.04-3.98l-1.82 2.4-.8-.6 1.83-2.4zm3.04-4l-1.82 2.4-.8-.6 1.83-2.4zm3.04-3.98l-1.82 2.4-.8-.6 1.83-2.4zm3.04-4l-1.82 2.4-.8-.6 1.83-2.4zm3.04-3.98l-1.82 2.38-.8-.6 1.83-2.4zm3.04-4l-1.82 2.4-.8-.62 1.83-2.4zm3-3.95l-1.78 2.35-.8-.6 1.8-2.35zm3.2-3.92l-1.9 2.33-.77-.63 1.9-2.33zm3.17-3.9l-1.9 2.34-.78-.63 1.9-2.34zm3.17-3.9l-1.9 2.35-.78-.63 1.9-2.34zm3.16-3.88l-1.9 2.34-.77-.65 1.9-2.33zm3.17-3.9l-1.9 2.34-.78-.64 1.9-2.33zm3.17-3.88l-1.9 2.33-.78-.63 1.9-2.33zm3.16-3.9l-1.9 2.34-.77-.62 1.9-2.34zm3.17-3.9l-1.9 2.35-.78-.63 1.9-2.35zm2.22-2.7l-.95 1.16-.78-.63.95-1.17z"/><path d="M920.5 759.5v.5h-1v-.5zM1070.7 414.1l-.98-.15 2.84-18.94-17.97 6.64-.36-.94 19.56-7.22z"/><use xlink:href="#i" transform="matrix(1,0,0,1,884.6563712778573,671.19057645684) translate(0 18.739149305555554)"/><path d="M722.98 820.47l-1.5.02v-1l1.5-.03zm5-.05l-3 .03v-1l2.98-.03zm5-.06h-.46l-2.55.04-.02-1 2.55-.03h.43zm4.98-.2l-3 .1-.04-1 3-.1zm4.98-.22l-3 .12-.03-1 3-.12zm4.98-.2l-3 .1-.03-.98 2.98-.13zm4.98-.22l-2.98.13-.05-1 3-.13zm5-.27l-1.47.12-1.53.07-.04-1 1.5-.06 1.46-.13zm4.97-.42l-2.98.25-.1-1 3-.24zm4.97-.4l-2.98.24-.08-1 2.98-.25zm4.97-.43l-2.97.25-.08-1 2.98-.25zm4.98-.42l-2.98.25-.08-1 2.98-.24zm4.98-.54l-2.88.37-.13-1 2.9-.35zm4.95-.62l-2.96.37-.12-1 2.97-.37zm4.96-.63l-2.97.37-.14-1 2.97-.37zm4.95-.63l-2.96.37-.13-1 2.98-.36zm4.95-.63l-2.96.38-.14-1 2.97-.37zm4.94-.83l-2.96.5-.16-.98 2.95-.5zm4.9-.82l-2.94.5-.17-1 2.94-.5zm4.93-.83l-2.95.5-.17-1 2.96-.5zm4.92-.83l-2.95.5-.17-1 2.95-.5zm4.9-.95l-2.8.6-.14.02-.15-1 .1-.02 2.8-.6zm4.9-1.04l-2.94.62-.2-.98 2.93-.62zm4.87-1.04l-2.93.6-.22-.96 2.93-.62zm4.88-1.04l-2.93.62-.2-.98 2.92-.62zm4.88-1.1l-1.67.42-1.25.26-.2-.98 1.23-.26 1.65-.42zm4.83-1.25l-2.9.75-.24-.97 2.9-.74zm4.84-1.23l-2.9.74-.25-.96 2.9-.74zm4.83-1.24l-2.9.74-.24-.97 2.9-.74zm4.84-1.3l-1.5.45-1.4.35-.24-.97 1.36-.34 1.5-.46zm4.78-1.45l-2.86.86-.3-.95 2.87-.88zm4.78-1.44l-2.87.86-.3-.95 2.87-.87zm4.77-1.44l-2.86.86-.3-.95 2.87-.86zm4.76-1.55l-2.37.83-.5.14-.28-.95.47-.15 2.34-.8zm4.7-1.64l-2.82 1-.33-.95 2.82-.98zm4.7-1.63l-2.8 1-.34-.96 2.82-.97zm4.72-1.64l-2.82 1-.33-.96 2.82-.98zm4.67-1.82l-2.8 1.1-.36-.92 2.78-1.1zm4.63-1.82l-2.8 1.1-.35-.93 2.78-1.1zm4.63-1.84l-2.78 1.1-.37-.93 2.8-1.1zm4.62-1.93l-2.25 1-.5.2-.38-.92.5-.2 2.22-1zm4.56-2.02l-2.74 1.2-.4-.9 2.73-1.22zm4.55-2.03l-2.74 1.22-.4-.92 2.73-1.2zm4.54-2.1l-1.28.65-1.44.64-.4-.9 1.4-.65 1.28-.64zm4.47-2.2l-2.67 1.32-.44-.9 2.67-1.32zm4.48-2.22l-2.68 1.33-.45-.9 2.68-1.33zm4.46-2.28l-1.15.63-1.53.76-.45-.9 1.5-.74 1.14-.62zm4.37-2.4l-2.6 1.44-.5-.88 2.63-1.45zm4.38-2.4l-2.62 1.44-.48-.9 2.62-1.43zm4.35-2.5l-1.73 1.06-.87.5-.48-.9.85-.46 1.7-1.03zm4.27-2.57l-2.56 1.55-.52-.85 2.56-1.55zm4.26-2.58l-2.56 1.55-.52-.86 2.56-1.56zm4.2-2.72l-2.48 1.66-.56-.84 2.5-1.65zm4.16-2.76l-2.5 1.66-.54-.84 2.5-1.65zm4.16-2.8l-.56.42-1.94 1.28-.55-.83 1.92-1.3.54-.38zm4.03-2.92l-2.4 1.76-.6-.8 2.43-1.77zm4.05-2.93l-2.42 1.75-.6-.8 2.43-1.76zm3.96-3.06l-2.33 1.86-.62-.78 2.34-1.86zm3.92-3.1l-2.34 1.87-.62-.8 2.34-1.84zm3.88-3.16l-1.43 1.23-.88.7-.64-.78.88-.7 1.4-1.22zm3.77-3.26l-2.26 1.95-.65-.75 2.27-1.96zm3.77-3.3l-.55.53-1.72 1.48-.65-.76 1.7-1.46.53-.5zm3.64-3.4l-2.18 2.04-.7-.73 2.2-2.06zm3.63-3.43l-2.17 2.06-.68-.72 2.18-2.05zm3.52-3.57l-2.1 2.14-.7-.7 2.08-2.14zm3.5-3.57l-2.1 2.15-.72-.7 2.1-2.13zm3.35-3.7l-2 2.22-.75-.67 2-2.22zm1.33-1.48l-.74-.67 1.2-1.35h1.36zm20.06-26.17l-.64 1.02h-1.2l.18-.27.82-1.28zm2.67-4.2l-1.6 2.52-.84-.54 1.6-2.52zm2.6-4.3l-1.24 2.15-.3.46-.84-.54.28-.43 1.22-2.14zm2.5-4.3l-1.5 2.58-.87-.5 1.5-2.6zm2.37-4.42l-1.4 2.66-.88-.48 1.4-2.65zm2.3-4.42l-1.38 2.67-.9-.47 1.4-2.65zm2.15-4.5l-1.27 2.7-.9-.43 1.27-2.7zm2.1-4.56l-.34.8-.9 1.94-.9-.42.9-1.92.33-.8zm1.93-4.6l-1.16 2.76-.92-.38 1.16-2.76zm1.86-4.64l-.72 1.94-.36.87-.92-.38.35-.85.7-1.92zm1.74-4.68l-1.04 2.8-.94-.34 1.05-2.8zm1.62-4.74l-.92 2.85-.96-.3.93-2.86zm1.54-4.74l-.92 2.84-.95-.3.92-2.85zm1.37-4.82l-.8 2.9-.95-.28.8-2.9zm1.35-4.82l-.08.33-.72 2.57-.96-.27.7-2.54.07-.33zm1.14-4.86l-.7 2.9-.97-.2.68-2.93zm1.08-4.9l-.22 1.2-.42 1.76-.97-.23.4-1.75.23-1.15zm.93-4.9l-.55 2.95-.98-.2.56-2.93zm.88-4.92l-.27 1.83-.2 1.14-1-.2.22-1.12.27-1.8zm.73-4.93l-.43 2.95-1-.15.45-2.96zm.64-4.98l-.23 2.25-.1.74-1-.13.1-.73.25-2.22zm.52-4.96l-.3 2.98-1-.1.3-2.98zm.43-5l-.16 2.4-.07.62-1-.1.07-.62.15-2.35zm.3-4.97l-.2 2.98-1-.06.2-3zm.22-5l-.04 2.14-.06.86-1-.06.06-.84.04-2.13zm.1-5l-.06 3-1-.02.07-3zm.08-3.48l-.03 1.5-1-.03.03-1.5zM1080 560l.52-.02-.02.54-1-.03.02-.52z"/><path d="M738.8 809.94l-16.34 10.03 16.65 9.47-.48.87L720.5 820l17.76-10.9z"/><use xlink:href="#h" transform="matrix(1,0,0,1,992.7942707624842,683.1668910723806) translate(0 18.739149305555554)"/><path d="M1023 820.47h-.22l-1.3.02v-1l1.28-.02h.2zm5-.25l-1 .08-2 .08-.06-1 2-.08.96-.08zm4.96-.5l-2.12.26-.87.07-.08-1 .84-.07 2.1-.26zm4.96-.8l-.33.07-2.65.44-.16-1 2.6-.43.3-.06zm4.86-1.13l-2.2.55-.72.16-.2-.97.7-.15 2.18-.56zm4.8-1.5l-1.6.55-1.26.38-.3-.95 1.25-.38 1.58-.55zm4.65-1.88l-1.5.67-1.27.5-.37-.94 1.25-.5 1.47-.65zm4.47-2.27l-1.68.93-.98.48-.44-.9.95-.47 1.67-.93zm4.26-2.7l-.2.16-1.84 1.23-.5.3-.5-.87.46-.28 1.8-1.2.2-.13zm3.96-3.08l-.7.6-1.64 1.3-.62-.78 1.63-1.3.66-.6zm3.65-3.44l-1.07 1.1-1.08 1-.68-.72 1.06-1 1.05-1.07zm3.32-3.77l-1.3 1.54-.66.75-.75-.66.66-.75 1.25-1.52zm2.96-4.04l-1.27 1.82-.5.63-.78-.6.46-.62 1.26-1.8zm2.62-4.27l-1 1.75-.53.83-.85-.54.5-.8 1.02-1.75zm2.3-4.46l-.52 1.13-.82 1.55-.88-.46.8-1.54.53-1.12zm2.02-4.6l-1.16 2.77-.92-.4 1.16-2.74zm1.73-4.7l-.27.82-.74 2-.94-.34.74-1.98.26-.8zm1.47-4.77l-.46 1.66-.4 1.2-.95-.3.38-1.2.46-1.64zm1.26-4.84l-.48 2.05-.24.86-.97-.26.24-.84.5-2.04zm1.06-4.9l-.36 1.9-.25 1.05-.96-.23.24-1.04.36-1.86zm.9-4.9l-.15.95-.38 2-1-.2.4-1.97.12-.94zm.72-4.94l-.44 2.96-1-.15.45-2.95zm.56-4.96l-.3 2.97-1-.1.3-2.98zm1.28-24.9v.24h-1v-.25zm.05-2.52v.54l-1-.02v-.52l-.06-2.45 1-.02zm-.1-4.46l-1 .02-.07-2.98 1-.02zm-.1-4.98l-1 .03-.08-3h1zm-.12-4.97l-1 .02-.06-3 1-.02zm-.17-5l-1 .08-.24-2.98 1-.08zm-.4-4.97l-1 .08-.24-2.97 1-.07zm-.4-4.96l-1 .08-.25-2.97 1-.08zm-.4-4.96l-1 .08-.25-2.97 1-.1zm-.4-4.96l-1 .08-.25-2.98 1-.08zm-.42-4.96l-.98.08-.25-2.98 1-.08zm-.4-4.96l-1 .08-.23-2.98 1-.08zm-.4-4.96l-1 .08-.23-2.98 1-.08zm-.4-4.97l-1 .08-.24-2.97 1-.08zm-.4-4.96l-1 .1-.24-2.98 1-.08zm-.4-4.95l-1 .08-.25-2.97 1-.1zm-.4-4.96l-1 .07-.25-2.98 1-.1zm-.4-4.97l-1 .08-.25-2.97 1-.08zm-.42-4.96l-1 .08-.24-2.98 1-.08zm-.4-4.96l-1 .1-.24-3 1-.07zm-.4-4.96l-1 .08-.24-2.97 1-.08zm-.4-4.96l-1 .08-.25-2.97 1-.1zm-.4-4.96l-1 .08-.25-2.97 1-.1zm-.4-4.95l-1 .06-.2-2.98 1-.06zm-.33-4.97l-1 .06-.2-2.98 1-.06zm-.33-4.97l-1 .07-.2-2.98 1-.07zm-.33-4.96l-1 .06-.2-2.98 1-.07zm-.34-4.97l-1 .06-.2-2.98 1-.06zm-.32-4.97l-1 .07-.2-2.98 1-.07zm-.33-4.97l-1 .07-.2-2.98 1-.07zm-.23-4.94l-1 .02-.07-3h1zm-.1-4.98l-1 .02-.08-3h1zm-.13-4.98l-1 .02-.06-2.98 1-.02zm-.1-4.97h-1l-.04-1.5h1z"/><path d="M1080 560l.5-.02v.5l-1 .03V560zM1038.15 808.86l-15.7 11 17.2 8.44-.44.9-18.7-9.2 17.07-11.96z"/><use xlink:href="#h" transform="matrix(1,0,0,1,1046.954989574715,723.1405434748211) translate(0 18.739149305555554)"/><path d="M1077.34 322l.32.54-.86.5-.3-.52-.48-.73.85-.55zm-2.5-3.76l.92 1.33-.82.57-.9-1.3-.84-1.1.8-.6zm-134.3-.23l-.04 1.5h-1l.03-1.5zm131.24-3.62l.96 1.17-.77.64-.95-1.17-1-1.1.76-.66zm-130.74-1.24l-.04.22-.2 1.42-.14 1.28-1-.1.14-1.3.2-1.47.06-.25zm127-2.75l1.36 1.4-.7.7-1.37-1.4-.75-.7.68-.73zm-125.78-2.02l-.34 1.05-.35 1.26-.13.5-.97-.22.13-.54.36-1.3.35-1.07zm123.53-.08l-.66.76-2.27-1.96.66-.76zm-121.58-4.4l-.47.88-.52 1.12-.28.65-.92-.4.3-.66.53-1.16.48-.9zm116.62.3l1.1.9-.6.77-1.1-.86-1.28-.92.6-.8zm-2.93-2.1l-.54.82-2.5-1.65.56-.84zm-111-2.3l-.6.77-.7 1.02-.4.6-.84-.53.4-.63.74-1.06.6-.8zm104.42-1.88l2.4 1.44-.52.86-2.38-1.44-.17-.1.48-.87zm-101.12-1.74l-.48.45-.95.96-.62.7-.75-.68.64-.7.98-1 .5-.47zm97.36-.33l1.83 1-.5.88-1.8-1-.82-.4.45-.9zm-4.07-2.02l1.44.72-.44.9-1.43-.72-1.26-.55.42-.92zm-91.66.9l-.16.13-.4-.47h.98zm87.3-2.84l1.25.55-.4.9-1.26-.54-1.5-.58.38-.93zm-4.65-1.85l1.26.5-.37.93-1.26-.5-1.53-.53.34-.94zm-4.9-1.7l1.45.5-.33.95-1.42-.5-1.4-.42.3-.96z"/><path d="M940.5 319.6l-.1.4h-1.02l.13-.6zM1077.72 323.64l-19.3-7.83.36-.92 17.75 7.2-2.24-19.02.98-.12z"/><use xlink:href="#i" transform="matrix(1,0,0,1,947.3918825305569,271.254959467411) translate(0 18.739149305555554)"/><path d="M1143.04 520.35l-.35.05-1.2.06-.05-1 1.14-.06.3-.04zm4.95-1.06l-1.67.47-1.28.27-.2-.98 1.24-.26 1.6-.47zm4.67-2.03l-.45.25-2.05.96-.27.1-.35-.93.23-.1 1.98-.92.42-.23zm4.28-2.72l-.24.2-2.26 1.5-.55-.82 2.22-1.5.2-.16zm3.84-3.24l-1.57 1.45-.7.56-.63-.77.68-.54 1.54-1.43zm3.5-3.6l-2.03 2.2-.73-.68 2.04-2.2zm3.2-3.87l-1.86 2.34-.78-.62 1.86-2.35zm2.92-4.1l-1.7 2.48-.82-.56 1.7-2.48zm2.68-4.25l-1.06 1.85-.5.74-.83-.56.5-.7 1.04-1.82zm2.48-4.34l-1.48 2.6-.87-.5 1.5-2.6zm2.23-4.5l-1.28 2.7-.9-.43 1.28-2.7zm2.15-4.52l-1.28 2.7-.9-.42 1.28-2.7zm1.85-4.68l-1.08 2.8-.93-.37 1.06-2.8zm1.8-4.66l-1.1 2.8-.92-.37 1.08-2.78zm.65-1.93l-.96-.28.53-1.8h1.05zm5.32-27.38l-.1 2.17h-1l.1-2.17v-.08l1-.06zm-.22-4.7l.12 2.58-1 .04-.1-2.52-.1-.4.98-.2zm-.5-2.44l-1 .2-.6-2.93.97-.2zm-1.05-4.9l-.97.22-.63-2.93.98-.2zm-1.03-4.87l-.98.2-.63-2.93.98-.2zm-1.04-4.9l-.98.22-.62-2.93.98-.2zm-1.15-5.43l.12.55-.98.2-.13-.58-.34-2.4 1-.14zm-.6-4.35l-1 .14-.4-2.97.98-.14zm-.52-4.92l-1 .05-.14-2.98 1-.05zm-.23-4.98l-1 .04-.06-1.5 1-.04z"/><path d="M1183.16 400.46l-1 .08-.04-.54h1zM1155.16 505.15l-12.8 14.26 18.67 4.35-.23.97-20.3-4.72 13.92-15.52z"/><use xlink:href="#d" transform="matrix(1,0,0,1,1154.7726676230632,445.64257470279983) translate(0 18.739149305555554)"/><path d="M620.53 758l-.03 1.5-1-.02.03-1.5zm.1-4.97l-.06 3-1-.03.06-3zm.1-4.98l-.05 3-1-.03.06-3zm.1-4.98l-.05 3-1-.03.06-3zm.1-4.98l-.05 2.98-1-.02.06-3zm.12-5l-.07 3-1-.02.07-3zm.1-4.97l-.06 3-1-.03.05-3zm.18-4.95l-.12 1.92v1.04l-1-.02v-1.06l.13-1.95zm.3-4.98l-.17 3-1-.08.2-2.98zm.32-4.97l-.18 3-1-.08.2-2.98zm.32-4.97l-.2 2.98-1-.06.2-2.98zm1.97-24.8l-.1.9h-1l.1-1zm.52-4.95l-.3 2.98-1-.1.3-2.98zm.52-4.95l-.3 2.98-1-.1.3-2.98zm.52-4.95l-.3 2.97-1-.1.3-2.97zm.55-4.93l-.13.9-.2 2.05-1-.1.2-2.07.14-.92zm.73-4.93l-.44 2.96-1-.14.45-2.96zm.73-4.92l-.43 2.95-1-.14.45-2.96zm.73-4.93l-.43 2.95-1-.15.44-2.96zm.73-4.94l-.44 2.96-1-.15.45-2.95zm.72-4.93l-.43 2.96-1-.16.44-2.95zm.9-4.87l-.56 2.93-.98-.2.56-2.93zm.93-4.9l-.54 2.94-1-.2.57-2.92zm.95-4.9l-.56 2.95-1-.18.56-2.94zm.93-4.88l-.56 2.93-.98-.17.56-2.94zm.93-4.9l-.55 2.94-.98-.2.56-2.92zm1.14-4.83l-.68 2.9-.98-.2.7-2.92zm1.14-4.85l-.7 2.9-.96-.2.68-2.92zm1.13-4.85l-.67 2.9-.97-.2.68-2.92zm1.15-4.84l-.68 2.9-.98-.2.67-2.92zm1.24-4.8l-.74 2.63-.06.24-.97-.23.06-.26.73-2.64zm1.33-4.8l-.8 2.9-.97-.28.8-2.88zm1.34-4.8l-.8 2.9-.97-.28.8-2.88zm1.33-4.8l-.8 2.9-.96-.28.8-2.88zm1.43-4.74l-.72 2.23-.16.6-.96-.28.17-.62.73-2.25zm1.54-4.74l-.92 2.85-.96-.3.92-2.86zm1.54-4.73l-.92 2.83-.95-.3.92-2.85zm1.54-4.75l-.92 2.84-.95-.32.92-2.84zm1.68-4.67l-1.04 2.8-.94-.35 1.04-2.8zm1.73-4.67l-1.04 2.8-.93-.34 1.05-2.8zm1.74-4.66l-1.05 2.8-.94-.34 1.05-2.8zm1.77-4.63l-.5 1.2-.6 1.57-.93-.34.6-1.6.5-1.2zm1.92-4.58l-1.16 2.76-.92-.4 1.15-2.75zm1.92-4.6l-1.15 2.76-.93-.38 1.16-2.76zm1.93-4.56l-.1.2-1.05 2.53-.93-.4 1.08-2.55.1-.22zm2.12-4.5l-1.27 2.7-.9-.43 1.27-2.7zm2.12-4.52l-1.28 2.7-.9-.42 1.27-2.7zm2.1-4.48l-.1.2-1.16 2.48-.9-.42 1.17-2.5.13-.22zm2.32-4.4l-1.4 2.63-.87-.47 1.38-2.65zm2.3-4.43l-1.38 2.65-.88-.46 1.38-2.65zm2.35-4.37l-.6 1.03-.82 1.56-.9-.46.85-1.6.6-1.04zm2.5-4.32l-1.5 2.6-.87-.5 1.5-2.6zm2.48-4.3l-1.5 2.58-.86-.5 1.48-2.6zm2.58-4.24l-1.6 2.52-.84-.53 1.6-2.54zm2.67-4.2l-1.6 2.52-.85-.54 1.6-2.52zm2.67-4.2l-.25.38-1.35 2.13-.85-.53 1.36-2.14.27-.4zm2.84-4.08l-1.7 2.46-.8-.57 1.7-2.45zm2.86-4.1l-1.7 2.47-.83-.58 1.7-2.46zm2.95-3.97l-1.8 2.38-.8-.6 1.8-2.4zm3.02-3.97l-1.8 2.38-.8-.6 1.8-2.4zm3.07-3.9l-1.4 1.67-.48.64-.8-.6.5-.67 1.4-1.68zm3.16-3.83l-1.9 2.3-.78-.64 1.9-2.3zm3.2-3.8l-.82.92-1.1 1.34-.78-.63 1.12-1.35.84-.93zm3.33-3.7l-2 2.23-.75-.67 2-2.2zm3.33-3.66l-.47.47-1.53 1.7-.75-.66 1.55-1.7.5-.5zm3.5-3.57l-2.1 2.13-.72-.7 2.1-2.13zm3.47-3.53l-.32.3-1.77 1.8-.7-.7 1.78-1.82.33-.3zm3.63-3.4l-2.18 2.03-.68-.72 2.18-2.04zm3.63-3.4l-.35.3-1.82 1.72-.68-.72 1.84-1.74.36-.3zm3.77-3.25l-2.26 1.95-.66-.75 2.28-1.96zm3.77-3.22l-.53.43-1.73 1.5-.66-.77 1.75-1.52.55-.43zm3.9-3.1l-2.34 1.86-.62-.8 2.34-1.85zm3.92-3.04l-.86.6-1.5 1.2-.6-.78 1.5-1.2.87-.64zm4.03-2.94l-2.42 1.76-.6-.8 2.43-1.76zm4.05-2.86l-1.28.85-1.16.84-.6-.82 1.2-.85 1.28-.86zm4.15-2.75l-2.5 1.65-.55-.83 2.5-1.66zm4.17-2.68l-1.77 1.08-.74.5-.55-.84.76-.5 1.8-1.08zm4.26-2.58l-2.55 1.54-.52-.85 2.57-1.56zm4.3-2.48l-2.3 1.27-.3.16-.5-.85.3-.18 2.32-1.28zm4.37-2.4l-2.62 1.44-.48-.88 2.62-1.44zm4.4-2.27l-2.67 1.33-.45-.9 2.68-1.33zm4.47-2.22l-2.68 1.33-.44-.9 2.67-1.32zm4.5-2.06l-2.73 1.2-.4-.9 2.72-1.22zm4.55-2.03l-2.73 1.22-.4-.92 2.73-1.2zm4.6-1.87l-2.78 1.1-.38-.93 2.78-1.1zm4.63-1.83l-2.78 1.1-.37-.93 2.78-1.1zm4.67-1.67l-2.82 1-.33-.96 2.82-.97zm4.7-1.63l-2.82.98-.33-.94 2.83-1zm4.74-1.48l-2.85.87-.3-.96 2.87-.86zm4.78-1.43l-2.86.86-.3-.97 2.87-.86zm4.8-1.3l-2.9.75-.25-.97 2.9-.73zm4.8-1.23l-2.88.74-.25-.97 2.9-.74zm4.85-1.1l-2.93.6-.2-.97 2.92-.62zm4.87-1.05l-2.92.62-.2-.98 2.9-.63zm4.86-.96l-1.72.28-1.2.26-.2-.98 1.2-.26 1.76-.3zm4.92-.84l-2.95.5-.17-1 2.95-.48zm4.9-.82h-.12l-2.82.5-.17-1 2.84-.47.14-.02zm3.45-.48l-1.48.2-.14-1 1.5-.2z"/><path d="M620.5 759.5v.5h-1v-.52zM860.43 369.63l-16.04 13.3-.65-.76 14.74-12.23-17.83-7.03.37-.92z"/><path d="M620.5 759.48l-1 .03-.03-1.5h1zm-.07-3.5l-1 .03-.06-3h1zm-.1-5l-1 .04-.07-3 1-.02zm-.1-4.98l-1 .02-.07-3 1-.02zm-.1-5l-1 .03-.07-3 1-.02zm-.1-5l-1 .03-.07-3h1zm-.12-5l-1 .06-.18-3 1-.05zm-.3-5l-1 .07-.2-3 1-.05zm-.32-4.97l-1 .06-.18-3 1-.06zm-.3-5l-1 .07-.2-3 1-.05zm-.32-4.97l-1 .06-.18-3 1-.06zm-.32-5l-1 .1-.3-3 1-.1zm-.52-4.98l-1 .1-.3-2.97 1-.1zm-.52-4.97l-1 .12-.3-2.98 1-.1zm-.52-4.95l-1 .1-.3-2.98 1-.1zm-.77-7.3l.26 2.33-1 .1-.24-2.3-.1-.65 1-.15zm-.38-2.65l-.98.15-.44-2.97 1-.14zm-.72-4.94l-1 .15-.43-2.96 1-.14zm-.73-4.94l-1 .15-.43-2.97 1-.15zm-1.15-7.8l.42 2.86-1 .14-.4-2.83-.03-.12 1-.2zm-.4-2.1l-.98.2-.56-2.95.98-.18zm-.93-4.9l-1 .2-.56-2.95.98-.2zm-.95-4.9l-.98.18-.56-2.94 1-.2zm-1.3-6.77l.37 1.86-1 .2-.34-1.84-.25-1.08.97-.23zm-.7-3.04l-.97.24-.7-2.92 1-.23zm-1.14-4.85l-.96.22-.7-2.9 1-.24zm-1.13-4.87l-.97.23-.7-2.9 1-.24zm-1.16-4.88l-.95.27-.8-2.9.96-.25zm-1.33-4.8l-.96.26-.8-2.9.96-.26zm-1.34-4.82l-.97.27-.8-2.9.96-.26zm-1.75-6.25l.4 1.44-.96.27-.4-1.42-.46-1.43.95-.32zm-1.1-3.35l-.94.3-.92-2.84.95-.3zm-1.53-4.75l-.95.3-.93-2.84.96-.32zm-2.33-7.2l.8 2.45-.96.3-.8-2.4-.14-.42.94-.35zm-.86-2.3l-.94.36-1.04-2.82.94-.35zm-1.74-4.67l-.94.35-1.04-2.8.94-.35zm-1.74-4.68l-.94.35-1.04-2.8.94-.36zm-1.82-4.68l-.93.4-1.16-2.77.93-.4zm-1.94-4.6l-.92.4-1.16-2.78.92-.38zm-1.93-4.6l-.94.38-1.16-2.76.92-.4zm-2.03-4.6l-.9.43-1.28-2.7.9-.44zm-2.13-4.52l-.9.43-1.28-2.7.9-.43zm-2.12-4.52l-.9.43-1.26-2.68.9-.43zm-2.2-4.5l-.9.47-1.4-2.66.9-.46zm-2.33-4.42l-.9.46-1.38-2.66.88-.46zm-3.54-6.75l1.22 2.3-.9.47-1.2-2.3-.18-.33.86-.5zm-1.2-2.1l-.86.5-1.5-2.58.87-.5zm-2.5-4.3l-.86.5-1.5-2.6.87-.5zm-3.62-6.3l1.13 1.96-.87.5-1.1-1.94-.4-.62.83-.54zm-1.48-2.32l-.84.53-1.6-2.52.84-.53zm-2.67-4.22l-.86.53-1.6-2.54.84-.53zm-3.76-5.9l1.07 1.68-.84.54-1.05-1.66-.57-.83.83-.58zm-1.72-2.48l-.83.57-1.72-2.46.82-.58zm-2.86-4.1l-.82.57-1.7-2.47.8-.57zm-3.96-5.7l1.1 1.6-.8.56-1.1-1.57-.64-.84.8-.6zm-1.85-2.45l-.8.6-1.8-2.38.78-.6zm-3.02-3.98l-.8.6-1.8-2.38.78-.6zm-4.4-5.77l1.37 1.8-.8.6-1.34-1.78-.48-.57.77-.64zm-1.75-2.13l-.77.64-1.9-2.32.77-.64zm-3.18-3.85l-.77.64-1.9-2.3.76-.65zm-3.2-3.85l-.76.64-1.9-2.32.76-.64zm-3.25-3.8l-.74.66-2-2.22.75-.66zm-3.34-3.72l-.73.67-2-2.23.73-.67zm-3.33-3.7l-.75.66-2-2.24.74-.67zm-3.38-3.72l-.72.7-2.1-2.14.72-.7zm-3.5-3.56l-.72.7-2.1-2.14.72-.7zm-3.5-3.57l-.7.7-2.1-2.14.7-.7zm-4.8-4.9l1.3 1.33-.7.7-1.3-1.33-.82-.76.68-.72zm-2.3-2.16l-.68.74-2.18-2.05.68-.74zm-3.64-3.4l-.68.72-2.2-2.05.7-.73zm-3.64-3.43l-.68.73-2.2-2.05.7-.73zm-3.87-3.63l.23.22-.7.73-.2-.2-2.03-1.77.65-.76zm-3.56-3.07l-.66.76-2.27-1.96.65-.76zm-3.8-3.26l-.65.76-2.27-1.95.66-.75zm-3.78-3.26l-.65.76-2.27-1.96.66-.75zm-3.8-3.27l-.62.78-2.34-1.86.62-.8zm-3.9-3.1l-.63.78-2.36-1.86.62-.8zm-3.92-3.1l-.62.78-2.35-1.87.62-.78zm-3.92-3.1l-.62.77-2.35-1.86.63-.78zm-5.23-4.15l1.32 1.04-.62.78-1.3-1.03-1.07-.76.6-.8zm-2.7-1.96l-.6.8-2.4-1.76.57-.8zm-4.04-2.94l-.58.8-2.43-1.75.58-.8zm-4.03-2.93l-.6.8-2.42-1.77.6-.8zm-4.05-2.95l-.58.8-2.43-1.75.6-.8zm-4.4-3.2l.36.27-.6.8-.33-.24-2.13-1.4.56-.85zm-3.8-2.52l-.56.83-2.5-1.66.56-.83zm-4.17-2.76l-.55.83-2.5-1.66.55-.83zm-4.16-2.77l-.56.84-2.5-1.66.55-.83zm-4.17-2.76l-.56.83-2.5-1.65.56-.84zm-5.88-3.9l1.72 1.14-.56.83L418 388l-.8-.5.55-.85zm-2.5-1.57l-.53.85-1.27-.8.54-.85z"/><path d="M620.5 760h-1v-.5l1-.02zM434.5 385.57l-.03 1-19.14-.83 8.5 17.17-.9.45-9.24-18.68z"/><path d="M620.53 758l-.03 1.5-1-.02.03-1.5zm.1-5l-.06 3-1-.02.06-3zm.1-5.02l-.05 3h-1l.06-3.02zm.23-4.98l-.18 2.85v.13l-1-.02v-.15l.18-2.87zm.3-5l-.17 3-1-.07.18-3zm.33-4.98l-.02.18-.18 2.8-1-.07.18-2.8.02-.22zm.52-5l-.32 3-1-.1.32-3zm.52-4.97l-.3 3-1-.1.3-3zm.66-4.95l-.44 2.98-1-.15.45-2.97zm.73-4.95l-.44 2.97-1-.14.44-2.98zm.8-4.92l-.38 2.05-.13.88-1-.14.15-.9.4-2.08zm5.62-24.37l-.13.5h-1.04l.2-.76zm1.4-4.8l-.4 1.23-.46 1.63-.97-.27.46-1.66.4-1.24zm1.54-4.75l-.94 2.87-.95-.3.94-2.87zm1.6-4.72l-.58 1.55-.4 1.27-.96-.3.42-1.3.58-1.56zm1.75-4.7l-1.05 2.83-.94-.34 1.05-2.82zm1.82-4.63l-.86 2.04-.25.7-.94-.34.28-.74.87-2.06zm1.94-4.62l-1.15 2.77-.92-.4 1.16-2.76zm2.06-4.55l-1.28 2.72-.9-.43 1.27-2.72zm2.13-4.54l-1.3 2.72-.9-.42 1.3-2.72zm2.26-4.44l-1.4 2.66-.88-.46 1.4-2.67zm2.32-4.44l-1.4 2.66-.88-.46 1.4-2.67zm2.47-4.34l-1.5 2.6-.87-.5 1.5-2.6zm2.46-4.25l-1.45 2.52-.86-.5 1.44-2.53zm2.73-4.3l-1.6 2.54-.85-.52 1.6-2.54zm2.7-4.2l-.35.5-1.27 2-.84-.53 1.28-2 .37-.54zm2.86-4.1l-1.73 2.46-.82-.57 1.72-2.47zm2.87-4.08l-.57.73-1.17 1.68-.82-.56 1.2-1.7.57-.76zm3.03-4l-1.82 2.4-.8-.6 1.82-2.4zm3.05-3.95l-.6.72-1.24 1.63-.78-.6 1.24-1.65.62-.74zm3.2-3.86l-1.92 2.3-.77-.64 1.9-2.3zm3.2-3.84l-.37.4-1.56 1.88-.77-.64 1.57-1.9.38-.4zm3.35-3.73l-2.02 2.24-.74-.67 2-2.24zm3.35-3.72l-2 2.24-.76-.67 2-2.23zm3.48-3.56l-2.1 2.14-.72-.7 2.12-2.14zm3.5-3.58l-2.1 2.14-.7-.7 2.1-2.14zm3.6-3.48l-2.2 2.06-.7-.73 2.2-2.04zm3.64-3.42l-2.2 2.05-.67-.72 2.2-2.05zm3.66-3.4l-.47.4-1.73 1.62-.68-.73 1.74-1.63.48-.42zm3.8-3.27l-2.28 1.95-.66-.76 2.27-1.97zm3.8-3.3l-2.3 1.98-.64-.76 2.26-1.96zm3.82-3.18l-1.64 1.3-.67.58-.65-.75.7-.6 1.65-1.3zm3.93-3.1l-2.36 1.86-.62-.8 2.36-1.85zm3.93-3.12l-2.35 1.87-.62-.8 2.36-1.85zm3.97-3.03l-1.73 1.26-.66.53-.62-.8.68-.53 1.75-1.26zm4.06-2.94l-2.43 1.77-.6-.8 2.44-1.78zm4.05-2.94l-2.43 1.75-.6-.8 2.45-1.77zm4.05-2.93l-.22.14-2.2 1.6-.58-.8 2.22-1.6.24-.17zm4.17-2.77l-2.5 1.66-.55-.84 2.5-1.66zm4.18-2.78l-2.5 1.67-.56-.85 2.5-1.66zm4.17-2.77l-2.5 1.67-.55-.84 2.5-1.66zm4.18-2.73l-.6.36-1.9 1.27-.56-.84 1.93-1.27.6-.37zm4.3-2.6l-2.6 1.56-.5-.85 2.57-1.56zm4.27-2.58l-2.57 1.55-.52-.86 2.6-1.56zm4.3-2.6l-2.58 1.56-.52-.86 2.57-1.55zm4.28-2.6l-2.57 1.57-.5-.85 2.56-1.56zm4.3-2.5l-1.8 1-.8.47-.5-.84.8-.48 1.83-1zm4.4-2.4l-2.63 1.44-.48-.88 2.64-1.44zm4.4-2.4l-2.64 1.43-.48-.87 2.64-1.45zm4.4-2.42l-2.64 1.44-.48-.87 2.63-1.46zm4.4-2.4l-2.65 1.43-.48-.87 2.64-1.45zm4.38-2.42l-2.64 1.44-.48-.87 2.64-1.45zm4.4-2.34l-1.36.67-1.28.7-.48-.87 1.3-.7 1.38-.7zm4.5-2.22l-2.7 1.33-.44-.9 2.7-1.33zm4.5-2.22l-2.7 1.33-.45-.9 2.7-1.33zm4.48-2.22l-2.7 1.33-.43-.9 2.7-1.32zm4.5-2.22l-2.7 1.33-.44-.88 2.7-1.33zm4.5-2.22l-2.7 1.34-.45-.9 2.7-1.33zm4.48-2.2l-2.7 1.32-.44-.9 2.7-1.33zm4.5-2.23l-2.7 1.33-.44-.9 2.7-1.33zm4.5-2.22l-2.7 1.34-.45-.9 2.7-1.33zm4.48-2.2l-2.7 1.32-.44-.9 2.7-1.33zm4.53-2.12l-2.72 1.27-.4-.9 2.7-1.27zm4.55-2.1l-2.73 1.26-.42-.9 2.73-1.27zm4.55-2.1l-2.73 1.26-.42-.9 2.73-1.27zm4.55-2.1l-2.73 1.25-.42-.9 2.73-1.27zm4.54-2.1l-2.73 1.25-.43-.9 2.73-1.27zm4.55-2.12l-2.73 1.26-.42-.9 2.73-1.27zm4.55-2.1l-2.73 1.26-.43-.9 2.73-1.27zm4.55-2.1l-2.73 1.25-.42-.9 2.73-1.26zm4.54-2.1L881 468.1l-.42-.9 2.73-1.26zm4.56-2.12l-2.73 1.27-.42-.9 2.74-1.27zm4.55-2.1l-2.72 1.26-.42-.9 2.73-1.27zm4.55-2.1l-2.72 1.26-.42-.9 2.73-1.27zm4.55-2.1l-2.73 1.25-.42-.92 2.73-1.26zm4.55-2.12l-2.73 1.27-.42-.92 2.73-1.26zm4.55-2.1l-2.73 1.26-.42-.9 2.73-1.27zm4.54-2.1l-2.72 1.26-.42-.9 2.72-1.27zm4.55-2.1l-2.74 1.25-.42-.9 2.73-1.27zm4.54-2.1l-2.73 1.25-.4-.9 2.72-1.27zm4.55-2.12l-2.74 1.26-.42-.9 2.73-1.27zm4.53-2.1l-2.72 1.26-.4-.9 2.7-1.27zm4.55-2.1l-2.73 1.26-.42-.9 2.73-1.28zm4.55-2.1l-2.73 1.25-.42-.9 2.73-1.27zm4.55-2.12l-2.73 1.27-.42-.9 2.73-1.27zm4.54-2.1l-2.73 1.26-.43-.9 2.73-1.27zm4.55-2.1l-2.73 1.26-.42-.9 2.73-1.27zm4.55-2.1l-2.73 1.25-.43-.9 2.73-1.27zm4.55-2.1l-2.73 1.25-.42-.9 2.73-1.27zm4.54-2.12l-2.72 1.26-.42-.9 2.73-1.27zm4.56-2.1l-2.73 1.26-.42-.9 2.74-1.27zm4.55-2.1l-2.72 1.25-.42-.9 2.73-1.26zm4.56-2.1l-2.73 1.25-.42-.9 2.74-1.26zm4.54-2.12l-2.73 1.27-.42-.9 2.73-1.26zm4.55-2.1l-2.73 1.26-.42-.9 2.73-1.27zm4.55-2.1l-2.73 1.26-.42-.9 2.73-1.27zm4.54-2.1l-2.72 1.25-.42-.92 2.72-1.26zm4.55-2.12l-2.74 1.27-.42-.92 2.73-1.26zm4.54-2.1l-2.73 1.26-.4-.9 2.72-1.27zm4.55-2.1l-2.74 1.26-.42-.9 2.73-1.27zm4.53-2.1l-2.72 1.25-.4-.9 2.7-1.27zm4.55-2.1l-2.73 1.25-.42-.9 2.73-1.27zm4.55-2.12l-2.73 1.26-.42-.9 2.73-1.27zm4.55-2.1l-2.73 1.26-.42-.9 2.73-1.27zm4.54-2.18l-.93.5-1.8.84-.42-.9 1.76-.83.9-.5zm4.4-2.4l-2.64 1.44-.47-.88 2.65-1.43zm4.4-2.38l-2.63 1.44-.5-.88 2.66-1.44zm4.42-2.4l-2.65 1.45-.48-.9 2.64-1.42zm4.4-2.37l-2.64 1.43-.48-.88 2.65-1.43zm4.4-2.4l-2.64 1.44-.47-.87 2.64-1.43zm3.1-1.66l-1.33.72-.47-.88 1.32-.7z"/><path d="M620.5 759.5v.5h-1v-.52zM1064.06 380.7l-10.72 17.88-.86-.52 9.85-16.43-19.14-.7.02-1z"/><defs><path d="M550-827c-191 0-346 159-346 349V0H72v-957h132v174c85-116 198-174 339-174h204v174c-69-29-134-44-197-44" id="m"/><path d="M52-478c0-256 228-501 485-501 264 0 489 248 480 516H180c0 180 174 355 357 355 148 0 301-110 347-219l130 23C955-140 749 17 537 22 280 28 52-222 52-478zm815-115c-38-129-172-257-330-256-158 0-295 130-340 256h670" id="n"/><path d="M-2-478c0-256 249-501 505-501 147 0 261 65 343 196v-572h132V0H846v-174C761-43 645 22 498 22 243 22-2-223-2-478zm843 0c0-191-151-371-338-371S128-665 128-478s183 370 370 370c188 0 343-180 343-370" id="o"/><path d="M483-108c191 0 291-169 291-370v-479h130V0H774v-137C701-31 604 22 483 22 219 22 67-183 67-456v-501h130v501c-4 182 112 348 286 348" id="p"/><path d="M51-478c0-256 221-509 478-501 201 6 353 126 426 274H803c-71-96-163-144-274-144-189 0-348 180-348 372 0 191 160 369 348 369 100 0 189-44 266-132h155C852-65 712 22 529 22 275 22 51-223 51-478" id="q"/><path d="M898-260C898-89 674 20 489 20 280 20 75-78 57-254l126-27c2 114 176 171 313 171 113 0 265-50 265-150 0-60-40-102-120-127-21-6-104-22-252-42-166-23-242-71-302-158-134-339 365-481 654-327 94 50 148 120 161 213l-126 27c-25-116-134-174-329-174-116 0-251 47-251 149 0 73 54 127 164 147 83 15 168 18 253 29 83 11 158 46 225 101 40 33 60 87 60 162" id="r"/><g id="a"><use transform="matrix(0.013020833333333334,0,0,0.013020833333333334,0,0)" xlink:href="#m"/><use transform="matrix(0.013020833333333334,0,0,0.013020833333333334,10.117187500000002,0)" xlink:href="#n"/><use transform="matrix(0.013020833333333334,0,0,0.013020833333333334,24.765625,0)" xlink:href="#o"/><use transform="matrix(0.013020833333333334,0,0,0.013020833333333334,39.2578125,0)" xlink:href="#p"/><use transform="matrix(0.013020833333333334,0,0,0.013020833333333334,52.79947916666667,0)" xlink:href="#q"/><use transform="matrix(0.013020833333333334,0,0,0.013020833333333334,66.9140625,0)" xlink:href="#n"/><use transform="matrix(0.013020833333333334,0,0,0.013020833333333334,81.5625,0)" xlink:href="#m"/><use transform="matrix(0.013020833333333334,0,0,0.013020833333333334,92.72135416666667,0)" xlink:href="#r"/></g><path d="M406 0C279 4 176-105 176-232v-595H26v-130c75 0 120-17 137-51 9-17 13-69 13-155h130v206h241v130H306v595c0 70 49 105 146 105 18 0 78-3 95-3V0H406" id="s"/><path d="M497-108c108 0 303-51 303-143v-220c-2 23-338 19-365 38-104 20-200 82-200 182 0 95 87 143 262 143zm28-871c161 0 405 100 405 248v579c0 27 16 41 48 44-1 21-3 64-5 129-72-4-122-33-151-87-82 59-188 88-318 88C233 22 97-70 97-253c0-145 124-253 248-288 70-20 368-9 427-58 17-9 27-25 29-46-1 7-1-13-1-60 0-84-168-147-260-147-166 0-269 58-309 174l-126-27c31-178 203-274 420-274" id="t"/><g id="b"><use transform="matrix(0.013020833333333334,0,0,0.013020833333333334,0,0)" xlink:href="#r"/><use transform="matrix(0.013020833333333334,0,0,0.013020833333333334,13.059895833333334,0)" xlink:href="#s"/><use transform="matrix(0.013020833333333334,0,0,0.013020833333333334,21.028645833333336,0)" xlink:href="#t"/><use transform="matrix(0.013020833333333334,0,0,0.013020833333333334,34.28385416666667,0)" xlink:href="#s"/><use transform="matrix(0.013020833333333334,0,0,0.013020833333333334,42.25260416666667,0)" xlink:href="#n"/></g><path d="M431-1222c-103-2-191 65-188 167v98h188v130H243V0H111v-827H33v-130h78c-7-146 8-241 94-317 61-53 135-81 226-81v133" id="u"/><g id="c"><use transform="matrix(0.013020833333333334,0,0,0.013020833333333334,0,0)" xlink:href="#n"/><use transform="matrix(0.013020833333333334,0,0,0.013020833333333334,14.6484375,0)" xlink:href="#u"/><use transform="matrix(0.013020833333333334,0,0,0.013020833333333334,20.963541666666668,0)" xlink:href="#u"/><use transform="matrix(0.013020833333333334,0,0,0.013020833333333334,27.278645833333336,0)" xlink:href="#n"/><use transform="matrix(0.013020833333333334,0,0,0.013020833333333334,41.927083333333336,0)" xlink:href="#q"/><use transform="matrix(0.013020833333333334,0,0,0.013020833333333334,56.04166666666667,0)" xlink:href="#s"/><use transform="matrix(0.013020833333333334,0,0,0.013020833333333334,64.01041666666667,0)" xlink:href="#r"/></g><path d="M209-478c0 191 154 370 342 370 187 0 348-181 348-370S737-849 551-849c-188 0-342 180-342 371zm820 0c0 258-224 500-478 500-147 0-262-65-347-196v573H74V-957h130v174c85-131 200-196 347-196 256 0 478 244 478 501" id="v"/><g id="d"><use transform="matrix(0.010850694444444444,0,0,0.010850694444444444,0,0)" xlink:href="#p"/><use transform="matrix(0.010850694444444444,0,0,0.010850694444444444,11.284722222222221,0)" xlink:href="#v"/><use transform="matrix(0.010850694444444444,0,0,0.010850694444444444,23.36154513888889,0)" xlink:href="#o"/><use transform="matrix(0.010850694444444444,0,0,0.010850694444444444,35.43836805555555,0)" xlink:href="#t"/><use transform="matrix(0.010850694444444444,0,0,0.010850694444444444,46.484374999999986,0)" xlink:href="#s"/><use transform="matrix(0.010850694444444444,0,0,0.010850694444444444,53.124999999999986,0)" xlink:href="#n"/></g><path d="M540 22C268 22 57-229 57-506v-345c-8-277 211-528 483-528 249 0 439 198 473 423H885c-28-159-165-293-345-293-205 0-353 174-353 382v377c-5 208 148 382 353 382 180 0 318-134 345-293h128C979-176 789 22 540 22" id="w"/><path d="M881-477c0-189-160-372-351-372-189 0-348 181-348 372s160 369 348 369 351-180 351-369zm-829-1c0-256 220-501 478-501 257 0 481 246 481 502S785 22 530 22C276 22 52-223 52-478" id="x"/><path d="M455-849c-173 0-251 180-251 371V0H74v-957h130v106c60-85 144-128 251-128 146 0 245 69 296 208 37-139 135-208 295-208 233 0 349 167 349 501V0h-130v-478c0-247-73-371-219-371-169 0-241 180-241 371V0H675l-1-478c0-247-73-371-219-371" id="y"/><path d="M545-849c-196 0-341 171-341 371V0H74v-957h130v174c77-131 190-196 341-196 285 0 449 200 449 493V0H862v-478c2-219-106-371-317-371" id="z"/><g id="e"><use transform="matrix(0.013020833333333334,0,0,0.013020833333333334,0,0)" xlink:href="#w"/><use transform="matrix(0.013020833333333334,0,0,0.013020833333333334,14.375,0)" xlink:href="#x"/><use transform="matrix(0.013020833333333334,0,0,0.013020833333333334,29.0234375,0)" xlink:href="#y"/><use transform="matrix(0.013020833333333334,0,0,0.013020833333333334,49.16666666666667,0)" xlink:href="#v"/><use transform="matrix(0.013020833333333334,0,0,0.013020833333333334,63.65885416666667,0)" xlink:href="#x"/><use transform="matrix(0.013020833333333334,0,0,0.013020833333333334,78.30729166666667,0)" xlink:href="#z"/><use transform="matrix(0.013020833333333334,0,0,0.013020833333333334,92.8515625,0)" xlink:href="#n"/><use transform="matrix(0.013020833333333334,0,0,0.013020833333333334,107.5,0)" xlink:href="#z"/><use transform="matrix(0.013020833333333334,0,0,0.013020833333333334,122.04427083333334,0)" xlink:href="#s"/></g><path d="M695-649l-152-510-156 510h308zM888 0L732-517H348L192 0H57l406-1355h160L1029 0H888" id="A"/><use transform="matrix(0.013020833333333334,0,0,0.013020833333333334,0,0)" xlink:href="#A" id="f"/><path d="M892-988c1-180-155-261-350-261-239 0-359 83-359 250 0 109 72 186 218 225 134 36 273 57 404 101 148 49 217 165 217 318 0 218-259 377-488 377C285 22 54-135 53-369h130c6 176 157 261 349 261 178 0 360-88 360-250 0-109-72-188-217-228-134-37-272-59-404-103C123-738 53-851 53-998c0-227 241-381 478-381 258 0 497 146 491 391H892" id="B"/><g id="g"><use transform="matrix(0.015190972222222224,0,0,0.015190972222222224,0,0)" xlink:href="#s"/><use transform="matrix(0.015190972222222224,0,0,0.015190972222222224,9.296875000000002,0)" xlink:href="#x"/><use transform="matrix(0.015190972222222224,0,0,0.015190972222222224,26.38671875,0)" xlink:href="#o"/><use transform="matrix(0.015190972222222224,0,0,0.015190972222222224,43.294270833333336,0)" xlink:href="#x"/><use transform="matrix(0.015190972222222224,0,0,0.015190972222222224,60.384114583333336,0)" xlink:href="#B"/><use transform="matrix(0.015190972222222224,0,0,0.015190972222222224,77.47395833333334,0)" xlink:href="#s"/><use transform="matrix(0.015190972222222224,0,0,0.015190972222222224,86.77083333333334,0)" xlink:href="#x"/><use transform="matrix(0.015190972222222224,0,0,0.015190972222222224,103.86067708333334,0)" xlink:href="#m"/><use transform="matrix(0.015190972222222224,0,0,0.015190972222222224,115.66406250000001,0)" xlink:href="#n"/></g><g id="h"><use transform="matrix(0.010850694444444444,0,0,0.010850694444444444,0,0)" xlink:href="#p"/><use transform="matrix(0.010850694444444444,0,0,0.010850694444444444,11.284722222222221,0)" xlink:href="#r"/><use transform="matrix(0.010850694444444444,0,0,0.010850694444444444,22.16796875,0)" xlink:href="#n"/><use transform="matrix(0.010850694444444444,0,0,0.010850694444444444,34.375,0)" xlink:href="#B"/><use transform="matrix(0.010850694444444444,0,0,0.010850694444444444,46.58203125,0)" xlink:href="#s"/><use transform="matrix(0.010850694444444444,0,0,0.010850694444444444,53.22265625,0)" xlink:href="#x"/><use transform="matrix(0.010850694444444444,0,0,0.010850694444444444,65.4296875,0)" xlink:href="#m"/><use transform="matrix(0.010850694444444444,0,0,0.010850694444444444,73.86067708333333,0)" xlink:href="#n"/></g><path d="M240-1205c-40 0-79-36-79-76s39-76 79-76c41 0 78 35 78 76s-37 76-78 76zM47-957h257V0H174v-827H47v-130" id="C"/><path d="M543-849c-184 0-339 185-339 371V0H74v-1355h130v572c84-131 197-196 339-196 250 0 421 235 421 493V0H834v-478c4-195-107-371-291-371" id="D"/><g id="i"><use transform="matrix(0.010850694444444444,0,0,0.010850694444444444,0,0)" xlink:href="#o"/><use transform="matrix(0.010850694444444444,0,0,0.010850694444444444,12.076822916666666,0)" xlink:href="#C"/><use transform="matrix(0.010850694444444444,0,0,0.010850694444444444,16.417100694444443,0)" xlink:href="#r"/><use transform="matrix(0.010850694444444444,0,0,0.010850694444444444,27.30034722222222,0)" xlink:href="#v"/><use transform="matrix(0.010850694444444444,0,0,0.010850694444444444,39.377170138888886,0)" xlink:href="#t"/><use transform="matrix(0.010850694444444444,0,0,0.010850694444444444,50.42317708333333,0)" xlink:href="#s"/><use transform="matrix(0.010850694444444444,0,0,0.010850694444444444,57.06380208333333,0)" xlink:href="#q"/><use transform="matrix(0.010850694444444444,0,0,0.010850694444444444,68.8259548611111,0)" xlink:href="#D"/></g><path d="M880-366c0-134-176-225-319-225H204v461h357c139 5 319-103 319-236zm-69-609c0-143-156-250-304-250H204v500h299c154 4 308-103 308-250zm195 609C1006-152 783 0 561 0H74v-1355h426c233-5 441 155 441 380 0 122-53 220-159 294 149 71 224 176 224 315" id="E"/><use transform="matrix(0.013020833333333334,0,0,0.013020833333333334,0,0)" xlink:href="#E" id="j"/><g id="k"><use transform="matrix(0.015190972222222224,0,0,0.015190972222222224,0,0)" xlink:href="#q"/><use transform="matrix(0.015190972222222224,0,0,0.015190972222222224,16.46701388888889,0)" xlink:href="#x"/><use transform="matrix(0.015190972222222224,0,0,0.015190972222222224,33.556857638888886,0)" xlink:href="#p"/><use transform="matrix(0.015190972222222224,0,0,0.015190972222222224,49.35546875,0)" xlink:href="#z"/><use transform="matrix(0.015190972222222224,0,0,0.015190972222222224,66.32378472222223,0)" xlink:href="#s"/><use transform="matrix(0.015190972222222224,0,0,0.015190972222222224,75.62065972222223,0)" xlink:href="#n"/><use transform="matrix(0.015190972222222224,0,0,0.015190972222222224,92.71050347222223,0)" xlink:href="#m"/><use transform="matrix(0.015190972222222224,0,0,0.015190972222222224,105.72916666666667,0)" xlink:href="#B"/><use transform="matrix(0.015190972222222224,0,0,0.015190972222222224,122.81901041666667,0)" xlink:href="#s"/><use transform="matrix(0.015190972222222224,0,0,0.015190972222222224,132.11588541666669,0)" xlink:href="#x"/><use transform="matrix(0.015190972222222224,0,0,0.015190972222222224,149.20572916666669,0)" xlink:href="#m"/><use transform="matrix(0.015190972222222224,0,0,0.015190972222222224,161.00911458333337,0)" xlink:href="#n"/></g></defs></g></svg>